<svg width="12" height="22" viewBox="0 0 12 22" fill="none" xmlns="http://www.w3.org/2000/svg">
<path d="M11.0527 21.4813C11.0036 21.4813 10.9549 21.4717 10.9095 21.4529C10.864 21.4341 10.8227 21.4066 10.788 21.3718L0.416992 11L10.788 0.628277C10.8587 0.559968 10.9534 0.52217 11.0518 0.523024C11.1501 0.523879 11.2441 0.563317 11.3137 0.632845C11.3832 0.702373 11.4226 0.796428 11.4235 0.894752C11.4243 0.993076 11.3866 1.0878 11.3182 1.15853L1.47749 11L11.3175 20.8415C11.3698 20.894 11.4054 20.9607 11.4198 21.0333C11.4342 21.106 11.4267 21.1813 11.3984 21.2497C11.3701 21.3181 11.3222 21.3766 11.2606 21.4178C11.1991 21.459 11.1268 21.4811 11.0527 21.4813Z" fill="#B592E1"/>
</svg>
